<svg width="609" height="565" viewBox="0 0 609 565" fill="none" xmlns="http://www.w3.org/2000/svg">
<path fill-rule="evenodd" clip-rule="evenodd" d="M717 173C717 268.545 639.545 346 544 346C448.455 346 371 268.545 371 173C371 77.4547 448.455 0 544 0C639.545 0 717 77.4547 717 173ZM418 351C418 425.006 358.006 485 284 485C209.994 485 150 425.006 150 351C150 276.994 209.994 217 284 217C358.006 217 418 276.994 418 351ZM87.5 565C135.825 565 175 525.825 175 477.5C175 429.175 135.825 390 87.5 390C39.1751 390 0 429.175 0 477.5C0 525.825 39.1751 565 87.5 565Z" fill="black" fill-opacity="0.1"/>
</svg>
