<svg width="437" height="277" viewBox="0 0 437 277" fill="none" xmlns="http://www.w3.org/2000/svg">
<path d="M4.79688 118V112.094L12.4375 110.781V57.0156L4.79688 55.7031V49.75H29.3125V55.7031L21.6719 57.0156V80.5938H54.2969V57.0156L46.6562 55.7031V49.75H71.1719V55.7031L63.5312 57.0156V110.781L71.1719 112.094V118H46.6562V112.094L54.2969 110.781V87.8594H21.6719V110.781L29.3125 112.094V118H4.79688ZM88.8737 118V112.094L96.5144 110.781V56.7344H81.0456L79.6862 66.2031H72.7487V49.75H129.467V66.2031H122.624L121.217 56.7344H105.749V110.781L113.389 112.094V118H88.8737ZM131.841 118V112.094L139.482 110.781V57.0156L131.841 55.7031V49.75H151.81L173.794 101.547H174.076L195.357 49.75H215.935V55.7031L208.294 57.0156V110.781L215.935 112.094V118H191.419V112.094L199.482 110.781V62.3594L199.247 62.3125L177.076 115.562H170.935L148.013 62.4062L147.779 62.4531L148.107 91V110.781L156.357 112.094V118H131.841ZM217.418 118V112.094L225.059 110.781V57.0156L217.418 55.7031V49.75H241.934V55.7031L234.293 57.0156V110.922H258.434L259.512 100.141H266.59V118H217.418ZM288.089 118.984C284.245 118.984 280.792 118.281 277.729 116.875C274.698 115.469 272.323 113.391 270.604 110.641C268.886 107.859 268.073 104.422 268.167 100.328L268.261 100.047H276.604C276.604 103.734 277.667 106.609 279.792 108.672C281.948 110.734 284.714 111.766 288.089 111.766C291.995 111.766 295.026 110.391 297.182 107.641C299.339 104.891 300.417 101.125 300.417 96.3438C300.417 91.9375 299.323 88.3438 297.136 85.5625C294.979 82.75 291.979 81.3438 288.136 81.3438C284.511 81.3438 281.87 81.8906 280.214 82.9844C278.589 84.0781 277.401 85.75 276.651 88L268.964 87.2031L272.901 49.75H308.948V63.25H302.011L301.12 57.9531H280.729L278.526 77.125C279.932 76.0625 281.511 75.1875 283.261 74.5C285.042 73.7812 287.089 73.3906 289.401 73.3281C295.682 73.2656 300.62 75.3125 304.214 79.4688C307.839 83.625 309.651 89.2188 309.651 96.25C309.651 103.094 307.807 108.594 304.12 112.75C300.464 116.906 295.12 118.984 288.089 118.984Z" fill="#DFDFDF"/>
<path d="M51 253.469H47.0625L46.1875 248.375H10.3438L9.46875 253.469H5.5V232.562C5.5 227.708 6.75 223.938 9.25 221.25C11.75 218.542 15.0417 217.188 19.125 217.188C23.25 217.188 26.5521 218.542 29.0312 221.25C31.5104 223.938 32.75 227.708 32.75 232.562V242.219H46.1875L47.0625 237.125H51V253.469ZM27.9375 242.219V232.562C27.9375 229.479 27.1146 227.177 25.4688 225.656C23.8021 224.115 21.7083 223.344 19.1875 223.344C16.6667 223.344 14.5625 224.115 12.875 225.656C11.1875 227.177 10.3438 229.479 10.3438 232.562V242.219H27.9375ZM51 212.906H47.0625L46.1875 207.812H10.3438L9.46875 212.906H5.5V196.562H9.46875L10.3438 201.656H26.0625L26.0625 179.906H10.3438L9.46875 185H5.5L5.5 168.656H9.46875L10.3438 173.75H46.1875L47.0625 168.656H51V185H47.0625L46.1875 179.906H30.9063L30.9062 201.656H46.1875L47.0625 196.562H51V212.906ZM51 163.594H47.0625L46.1875 158.5H10.3438L9.46875 163.594H5.5V142.688C5.5 137.833 6.75 134.062 9.25 131.375C11.75 128.667 15.0417 127.312 19.125 127.312C23.25 127.312 26.5521 128.667 29.0313 131.375C31.5104 134.062 32.75 137.833 32.75 142.688V152.344H46.1875L47.0625 147.25H51V163.594ZM27.9375 152.344V142.688C27.9375 139.604 27.1146 137.302 25.4688 135.781C23.8021 134.24 21.7083 133.469 19.1875 133.469C16.6667 133.469 14.5625 134.24 12.875 135.781C11.1875 137.302 10.3438 139.604 10.3438 142.688V152.344H27.9375Z" fill="#DFDFDF"/>
<path d="M163.99 147.369C161.424 147.369 159.279 146.807 157.557 145.682C155.846 144.557 154.557 143.016 153.689 141.059C152.834 139.102 152.406 136.881 152.406 134.396V134.027C152.406 131.52 152.857 129.293 153.76 127.348C154.662 125.391 155.957 123.85 157.645 122.725C159.332 121.6 161.348 121.037 163.691 121.037C165.344 121.037 166.855 121.295 168.227 121.811C169.598 122.326 170.734 122.982 171.637 123.779V129.299H168.877L168.508 125.256C167.324 124.354 165.713 123.902 163.674 123.902C161.998 123.902 160.58 124.336 159.42 125.203C158.26 126.059 157.381 127.242 156.783 128.754C156.186 130.266 155.887 132.012 155.887 133.992V134.396C155.887 137.619 156.596 140.121 158.014 141.902C159.432 143.672 161.465 144.557 164.113 144.557C164.934 144.557 165.736 144.457 166.521 144.258C167.307 144.059 167.957 143.801 168.473 143.484L168.859 139.916H171.566V145.471C170.605 146.068 169.457 146.537 168.121 146.877C166.785 147.205 165.408 147.369 163.99 147.369ZM182.528 147.369C180.97 147.369 179.47 147.141 178.028 146.684C176.587 146.227 175.21 145.523 173.897 144.574V139.107H176.587L177.167 143.133C177.929 143.602 178.755 143.965 179.645 144.223C180.536 144.48 181.497 144.609 182.528 144.609C184.274 144.609 185.628 144.223 186.589 143.449C187.55 142.664 188.03 141.639 188.03 140.373C188.03 139.201 187.596 138.229 186.729 137.455C185.862 136.682 184.315 136.043 182.089 135.539C179.44 134.93 177.419 134.004 176.024 132.762C174.63 131.508 173.932 129.932 173.932 128.033C173.932 126.697 174.284 125.502 174.987 124.447C175.702 123.393 176.692 122.561 177.958 121.951C179.223 121.342 180.7 121.037 182.388 121.037C184.18 121.037 185.763 121.312 187.134 121.863C188.516 122.402 189.653 123.059 190.544 123.832V128.947H187.854L187.274 125.291C186.747 124.869 186.091 124.518 185.305 124.236C184.52 123.955 183.548 123.814 182.388 123.814C180.899 123.814 179.692 124.195 178.766 124.957C177.852 125.719 177.395 126.727 177.395 127.98C177.395 129.082 177.835 129.984 178.714 130.688C179.593 131.379 181.116 131.994 183.284 132.533C185.979 133.201 188.018 134.191 189.401 135.504C190.796 136.805 191.493 138.416 191.493 140.338C191.493 141.709 191.124 142.928 190.386 143.994C189.647 145.049 188.604 145.875 187.257 146.473C185.921 147.07 184.345 147.369 182.528 147.369ZM201.927 147.369C200.369 147.369 198.869 147.141 197.427 146.684C195.986 146.227 194.609 145.523 193.296 144.574V139.107H195.986L196.566 143.133C197.328 143.602 198.154 143.965 199.045 144.223C199.935 144.48 200.896 144.609 201.927 144.609C203.673 144.609 205.027 144.223 205.988 143.449C206.949 142.664 207.429 141.639 207.429 140.373C207.429 139.201 206.996 138.229 206.129 137.455C205.261 136.682 203.714 136.043 201.488 135.539C198.839 134.93 196.818 134.004 195.423 132.762C194.029 131.508 193.332 129.932 193.332 128.033C193.332 126.697 193.683 125.502 194.386 124.447C195.101 123.393 196.091 122.561 197.357 121.951C198.623 121.342 200.099 121.037 201.787 121.037C203.58 121.037 205.162 121.312 206.533 121.863C207.916 122.402 209.052 123.059 209.943 123.832V128.947H207.254L206.673 125.291C206.146 124.869 205.49 124.518 204.705 124.236C203.92 123.955 202.947 123.814 201.787 123.814C200.298 123.814 199.091 124.195 198.166 124.957C197.252 125.719 196.795 126.727 196.795 127.98C196.795 129.082 197.234 129.984 198.113 130.688C198.992 131.379 200.515 131.994 202.683 132.533C205.379 133.201 207.418 134.191 208.8 135.504C210.195 136.805 210.892 138.416 210.892 140.338C210.892 141.709 210.523 142.928 209.785 143.994C209.046 145.049 208.004 145.875 206.656 146.473C205.32 147.07 203.744 147.369 201.927 147.369ZM219.991 147.369C218.432 147.369 217.043 147.088 215.825 146.525C214.606 145.951 213.651 145.143 212.959 144.1C212.28 143.045 211.957 141.797 211.993 140.355L212.045 140.25H215.35C215.35 141.598 215.76 142.67 216.58 143.467C217.412 144.264 218.549 144.662 219.991 144.662C221.455 144.662 222.604 144.264 223.436 143.467C224.268 142.67 224.684 141.492 224.684 139.934C224.684 138.352 224.315 137.186 223.577 136.436C222.838 135.686 221.672 135.311 220.079 135.311H217.055V132.604H220.079C221.614 132.604 222.698 132.223 223.33 131.461C223.975 130.688 224.297 129.615 224.297 128.244C224.297 125.256 222.862 123.762 219.991 123.762C218.643 123.762 217.559 124.16 216.739 124.957C215.93 125.742 215.526 126.791 215.526 128.104H212.204L212.168 127.998C212.133 126.709 212.438 125.537 213.082 124.482C213.739 123.428 214.659 122.59 215.842 121.969C217.037 121.348 218.42 121.037 219.991 121.037C222.358 121.037 224.245 121.67 225.651 122.936C227.057 124.189 227.76 125.982 227.76 128.314C227.76 129.369 227.438 130.424 226.793 131.479C226.161 132.521 225.205 133.318 223.928 133.869C225.463 134.373 226.547 135.164 227.18 136.242C227.825 137.32 228.147 138.527 228.147 139.863C228.147 141.422 227.795 142.764 227.092 143.889C226.401 145.002 225.44 145.863 224.209 146.473C222.979 147.07 221.573 147.369 219.991 147.369Z" fill="#DFDFDF"/>
<path d="M165.102 169.246C164.062 169.246 163.062 169.094 162.102 168.789C161.141 168.484 160.223 168.016 159.348 167.383V163.738H161.141L161.527 166.422C162.035 166.734 162.586 166.977 163.18 167.148C163.773 167.32 164.414 167.406 165.102 167.406C166.266 167.406 167.168 167.148 167.809 166.633C168.449 166.109 168.77 165.426 168.77 164.582C168.77 163.801 168.48 163.152 167.902 162.637C167.324 162.121 166.293 161.695 164.809 161.359C163.043 160.953 161.695 160.336 160.766 159.508C159.836 158.672 159.371 157.621 159.371 156.355C159.371 155.465 159.605 154.668 160.074 153.965C160.551 153.262 161.211 152.707 162.055 152.301C162.898 151.895 163.883 151.691 165.008 151.691C166.203 151.691 167.258 151.875 168.172 152.242C169.094 152.602 169.852 153.039 170.445 153.555V156.965H168.652L168.266 154.527C167.914 154.246 167.477 154.012 166.953 153.824C166.43 153.637 165.781 153.543 165.008 153.543C164.016 153.543 163.211 153.797 162.594 154.305C161.984 154.812 161.68 155.484 161.68 156.32C161.68 157.055 161.973 157.656 162.559 158.125C163.145 158.586 164.16 158.996 165.605 159.355C167.402 159.801 168.762 160.461 169.684 161.336C170.613 162.203 171.078 163.277 171.078 164.559C171.078 165.473 170.832 166.285 170.34 166.996C169.848 167.699 169.152 168.25 168.254 168.648C167.363 169.047 166.312 169.246 165.102 169.246ZM180.793 169.246C179.082 169.246 177.652 168.871 176.504 168.121C175.363 167.371 174.504 166.344 173.926 165.039C173.355 163.734 173.07 162.254 173.07 160.598V160.352C173.07 158.68 173.371 157.195 173.973 155.898C174.574 154.594 175.438 153.566 176.562 152.816C177.688 152.066 179.031 151.691 180.594 151.691C181.695 151.691 182.703 151.863 183.617 152.207C184.531 152.551 185.289 152.988 185.891 153.52V157.199H184.051L183.805 154.504C183.016 153.902 181.941 153.602 180.582 153.602C179.465 153.602 178.52 153.891 177.746 154.469C176.973 155.039 176.387 155.828 175.988 156.836C175.59 157.844 175.391 159.008 175.391 160.328V160.598C175.391 162.746 175.863 164.414 176.809 165.602C177.754 166.781 179.109 167.371 180.875 167.371C181.422 167.371 181.957 167.305 182.48 167.172C183.004 167.039 183.438 166.867 183.781 166.656L184.039 164.277H185.844V167.98C185.203 168.379 184.438 168.691 183.547 168.918C182.656 169.137 181.738 169.246 180.793 169.246ZM194.352 169.246C193.312 169.246 192.312 169.094 191.352 168.789C190.391 168.484 189.473 168.016 188.598 167.383V163.738H190.391L190.777 166.422C191.285 166.734 191.836 166.977 192.43 167.148C193.023 167.32 193.664 167.406 194.352 167.406C195.516 167.406 196.418 167.148 197.059 166.633C197.699 166.109 198.02 165.426 198.02 164.582C198.02 163.801 197.73 163.152 197.152 162.637C196.574 162.121 195.543 161.695 194.059 161.359C192.293 160.953 190.945 160.336 190.016 159.508C189.086 158.672 188.621 157.621 188.621 156.355C188.621 155.465 188.855 154.668 189.324 153.965C189.801 153.262 190.461 152.707 191.305 152.301C192.148 151.895 193.133 151.691 194.258 151.691C195.453 151.691 196.508 151.875 197.422 152.242C198.344 152.602 199.102 153.039 199.695 153.555V156.965H197.902L197.516 154.527C197.164 154.246 196.727 154.012 196.203 153.824C195.68 153.637 195.031 153.543 194.258 153.543C193.266 153.543 192.461 153.797 191.844 154.305C191.234 154.812 190.93 155.484 190.93 156.32C190.93 157.055 191.223 157.656 191.809 158.125C192.395 158.586 193.41 158.996 194.855 159.355C196.652 159.801 198.012 160.461 198.934 161.336C199.863 162.203 200.328 163.277 200.328 164.559C200.328 165.473 200.082 166.285 199.59 166.996C199.098 167.699 198.402 168.25 197.504 168.648C196.613 169.047 195.562 169.246 194.352 169.246ZM208.484 169.246C207.445 169.246 206.445 169.094 205.484 168.789C204.523 168.484 203.605 168.016 202.73 167.383V163.738H204.523L204.91 166.422C205.418 166.734 205.969 166.977 206.562 167.148C207.156 167.32 207.797 167.406 208.484 167.406C209.648 167.406 210.551 167.148 211.191 166.633C211.832 166.109 212.152 165.426 212.152 164.582C212.152 163.801 211.863 163.152 211.285 162.637C210.707 162.121 209.676 161.695 208.191 161.359C206.426 160.953 205.078 160.336 204.148 159.508C203.219 158.672 202.754 157.621 202.754 156.355C202.754 155.465 202.988 154.668 203.457 153.965C203.934 153.262 204.594 152.707 205.438 152.301C206.281 151.895 207.266 151.691 208.391 151.691C209.586 151.691 210.641 151.875 211.555 152.242C212.477 152.602 213.234 153.039 213.828 153.555V156.965H212.035L211.648 154.527C211.297 154.246 210.859 154.012 210.336 153.824C209.812 153.637 209.164 153.543 208.391 153.543C207.398 153.543 206.594 153.797 205.977 154.305C205.367 154.812 205.062 155.484 205.062 156.32C205.062 157.055 205.355 157.656 205.941 158.125C206.527 158.586 207.543 158.996 208.988 159.355C210.785 159.801 212.145 160.461 213.066 161.336C213.996 162.203 214.461 163.277 214.461 164.559C214.461 165.473 214.215 166.285 213.723 166.996C213.23 167.699 212.535 168.25 211.637 168.648C210.746 169.047 209.695 169.246 208.484 169.246Z" fill="#DFDFDF"/>
<path d="M42.8945 143.246C41.9492 143.246 41.0898 143.059 40.3164 142.684C39.5508 142.309 38.9336 141.742 38.4648 140.984C38.0039 140.227 37.75 139.277 37.7031 138.137L37.7266 138.066H39.9414C39.9727 139.215 40.2344 140.059 40.7266 140.598C41.2266 141.137 41.9375 141.406 42.8594 141.406C43.8281 141.406 44.5391 141.105 44.9922 140.504C45.4453 139.895 45.6719 139.113 45.6719 138.16V127.754L43.3984 127.449V125.938H49.8906V127.426L47.9805 127.754V138.16C47.9805 139.691 47.5469 140.922 46.6797 141.852C45.8203 142.781 44.5586 143.246 42.8945 143.246ZM54.8397 143.246C53.5194 143.246 52.5155 142.926 51.828 142.285C51.1405 141.637 50.7967 140.727 50.7967 139.555C50.7967 138.352 51.2889 137.387 52.2733 136.66C53.2577 135.926 54.6248 135.559 56.3748 135.559H58.6366V134.316C58.6366 133.551 58.4022 132.957 57.9334 132.535C57.4725 132.113 56.8202 131.902 55.9764 131.902C55.4452 131.902 54.9842 131.969 54.5936 132.102C54.203 132.227 53.8475 132.402 53.5272 132.629L53.2811 134.398H51.4998V131.492C52.6483 130.555 54.1522 130.086 56.0116 130.086C57.5506 130.086 58.7577 130.453 59.6327 131.188C60.5077 131.922 60.9452 132.973 60.9452 134.34V140.445C60.9452 140.609 60.9452 140.77 60.9452 140.926C60.953 141.082 60.9647 141.238 60.9803 141.395L62.2108 141.523V143H58.8944C58.7616 142.359 58.6795 141.777 58.6483 141.254C58.203 141.824 57.6444 142.301 56.9725 142.684C56.3084 143.059 55.5975 143.246 54.8397 143.246ZM55.1795 141.312C55.9452 141.312 56.6444 141.129 57.2772 140.762C57.91 140.395 58.3631 139.953 58.6366 139.438V137.141H56.2928C55.2303 137.141 54.4334 137.395 53.9022 137.902C53.3709 138.41 53.1053 138.977 53.1053 139.602C53.1053 140.742 53.7967 141.312 55.1795 141.312ZM68.238 143L63.7262 131.984L62.4137 131.809V130.32H67.7341V131.809L66.0817 132.043L68.8942 139.262L69.2223 140.281H69.2927L69.6677 139.262L72.2809 132.043L70.5817 131.809V130.32H75.8903V131.809L74.5544 131.984L70.2653 143H68.238ZM80.1831 143.246C78.8628 143.246 77.8589 142.926 77.1714 142.285C76.4839 141.637 76.1402 140.727 76.1402 139.555C76.1402 138.352 76.6323 137.387 77.6167 136.66C78.6011 135.926 79.9683 135.559 81.7183 135.559H83.98V134.316C83.98 133.551 83.7456 132.957 83.2769 132.535C82.8159 132.113 82.1636 131.902 81.3198 131.902C80.7886 131.902 80.3277 131.969 79.937 132.102C79.5464 132.227 79.1909 132.402 78.8706 132.629L78.6245 134.398H76.8433V131.492C77.9917 130.555 79.4956 130.086 81.355 130.086C82.8941 130.086 84.1011 130.453 84.9761 131.188C85.8511 131.922 86.2886 132.973 86.2886 134.34V140.445C86.2886 140.609 86.2886 140.77 86.2886 140.926C86.2964 141.082 86.3081 141.238 86.3237 141.395L87.5542 141.523V143H84.2378C84.105 142.359 84.023 141.777 83.9917 141.254C83.5464 141.824 82.9878 142.301 82.3159 142.684C81.6519 143.059 80.9409 143.246 80.1831 143.246ZM80.523 141.312C81.2886 141.312 81.9878 141.129 82.6206 140.762C83.2534 140.395 83.7066 139.953 83.98 139.438V137.141H81.6362C80.5737 137.141 79.7769 137.395 79.2456 137.902C78.7144 138.41 78.4487 138.977 78.4487 139.602C78.4487 140.742 79.1402 141.312 80.523 141.312ZM94.7416 143.246C93.7025 143.246 92.7025 143.094 91.7416 142.789C90.7806 142.484 89.8627 142.016 88.9877 141.383V137.738H90.7806L91.1673 140.422C91.6752 140.734 92.2259 140.977 92.8197 141.148C93.4134 141.32 94.0541 141.406 94.7416 141.406C95.9056 141.406 96.808 141.148 97.4486 140.633C98.0892 140.109 98.4095 139.426 98.4095 138.582C98.4095 137.801 98.1205 137.152 97.5423 136.637C96.9642 136.121 95.933 135.695 94.4486 135.359C92.683 134.953 91.3353 134.336 90.4056 133.508C89.4759 132.672 89.0111 131.621 89.0111 130.355C89.0111 129.465 89.2455 128.668 89.7142 127.965C90.1908 127.262 90.8509 126.707 91.6947 126.301C92.5384 125.895 93.5228 125.691 94.6478 125.691C95.8431 125.691 96.8978 125.875 97.8119 126.242C98.7337 126.602 99.4916 127.039 100.085 127.555V130.965H98.2923L97.9056 128.527C97.5541 128.246 97.1166 128.012 96.5931 127.824C96.0697 127.637 95.4212 127.543 94.6478 127.543C93.6556 127.543 92.8509 127.797 92.2337 128.305C91.6244 128.812 91.3197 129.484 91.3197 130.32C91.3197 131.055 91.6127 131.656 92.1986 132.125C92.7845 132.586 93.8002 132.996 95.2455 133.355C97.0423 133.801 98.4017 134.461 99.3236 135.336C100.253 136.203 100.718 137.277 100.718 138.559C100.718 139.473 100.472 140.285 99.9798 140.996C99.4877 141.699 98.7923 142.25 97.8939 142.648C97.0033 143.047 95.9525 143.246 94.7416 143.246ZM107.53 143.246C106.382 143.246 105.382 142.98 104.53 142.449C103.679 141.91 103.019 141.164 102.55 140.211C102.081 139.258 101.847 138.156 101.847 136.906V136.414C101.847 135.211 102.073 134.133 102.527 133.18C102.98 132.227 103.632 131.473 104.484 130.918C105.335 130.363 106.351 130.086 107.53 130.086C108.554 130.086 109.448 130.254 110.214 130.59C110.987 130.926 111.636 131.387 112.159 131.973L112.218 135.02H110.413L110.015 132.805C109.749 132.531 109.417 132.312 109.019 132.148C108.62 131.984 108.152 131.902 107.612 131.902C106.925 131.902 106.32 132.105 105.796 132.512C105.28 132.918 104.878 133.461 104.589 134.141C104.3 134.82 104.155 135.578 104.155 136.414V136.906C104.155 138.297 104.456 139.402 105.058 140.223C105.659 141.035 106.48 141.441 107.519 141.441C108.3 141.441 108.948 141.227 109.464 140.797C109.98 140.367 110.296 139.777 110.413 139.027H112.487L112.511 139.098C112.472 139.824 112.257 140.504 111.866 141.137C111.476 141.77 110.917 142.281 110.191 142.672C109.472 143.055 108.585 143.246 107.53 143.246ZM113.452 143V141.523L115.362 141.195V132.137L113.452 131.809V130.32H117.425L117.624 131.938L117.647 132.16C118.007 131.512 118.448 131.004 118.972 130.637C119.503 130.27 120.108 130.086 120.788 130.086C121.03 130.086 121.276 130.109 121.526 130.156C121.784 130.195 121.968 130.234 122.077 130.273L121.772 132.418L120.167 132.324C119.558 132.285 119.046 132.426 118.632 132.746C118.218 133.059 117.897 133.48 117.671 134.012V141.195L119.581 141.523V143H113.452ZM122.561 143V141.523L124.472 141.195V132.137L122.561 131.809V130.32H126.78V141.195L128.69 141.523V143H122.561ZM124.354 127.191V124.719H126.78V127.191H124.354ZM129.092 147.875V146.387L130.885 146.059V132.137L128.975 131.809V130.32H132.866L133.077 131.867C133.944 130.68 135.159 130.086 136.721 130.086C137.768 130.086 138.663 130.371 139.405 130.941C140.147 131.504 140.714 132.297 141.104 133.32C141.495 134.336 141.69 135.527 141.69 136.895V137.141C141.69 138.359 141.491 139.426 141.092 140.34C140.702 141.254 140.139 141.969 139.405 142.484C138.671 142.992 137.788 143.246 136.757 143.246C135.217 143.246 134.03 142.727 133.194 141.688V146.059L135.21 146.387V147.875H129.092ZM136.042 141.441C137.135 141.441 137.964 141.043 138.526 140.246C139.089 139.449 139.37 138.414 139.37 137.141V136.895C139.37 135.449 139.089 134.266 138.526 133.344C137.964 132.422 137.128 131.961 136.018 131.961C135.362 131.961 134.8 132.109 134.331 132.406C133.862 132.703 133.483 133.109 133.194 133.625V139.801C133.483 140.324 133.858 140.73 134.319 141.02C134.788 141.301 135.362 141.441 136.042 141.441ZM147.12 143.199C146.182 143.199 145.436 142.926 144.881 142.379C144.335 141.824 144.061 140.941 144.061 139.73V132.031H142.057V130.32H144.061V127.262H146.37V130.32H149.124V132.031H146.37V139.73C146.37 140.34 146.491 140.789 146.733 141.078C146.975 141.367 147.299 141.512 147.706 141.512C147.979 141.512 148.284 141.488 148.62 141.441C148.956 141.387 149.217 141.34 149.405 141.301L149.721 142.812C149.385 142.914 148.971 143.004 148.479 143.082C147.995 143.16 147.542 143.199 147.12 143.199Z" fill="#DFDFDF"/>
<path d="M85.6406 218.984C78.7969 218.984 73.0781 217.484 68.4844 214.484C63.9219 211.484 60.4844 207.375 58.1719 202.156C55.8906 196.938 54.75 191.016 54.75 184.391V183.406C54.75 176.719 55.9531 170.781 58.3594 165.594C60.7656 160.375 64.2188 156.266 68.7188 153.266C73.2188 150.266 78.5938 148.766 84.8438 148.766C89.25 148.766 93.2812 149.453 96.9375 150.828C100.594 152.203 103.625 153.953 106.031 156.078V170.797H98.6719L97.6875 160.016C94.5312 157.609 90.2344 156.406 84.7969 156.406C80.3281 156.406 76.5469 157.562 73.4531 159.875C70.3594 162.156 68.0156 165.312 66.4219 169.344C64.8281 173.375 64.0312 178.031 64.0312 183.312V184.391C64.0312 192.984 65.9219 199.656 69.7031 204.406C73.4844 209.125 78.9062 211.484 85.9688 211.484C88.1562 211.484 90.2969 211.219 92.3906 210.688C94.4844 210.156 96.2188 209.469 97.5938 208.625L98.625 199.109H105.844V213.922C103.281 215.516 100.219 216.766 96.6562 217.672C93.0938 218.547 89.4219 218.984 85.6406 218.984ZM114.487 218L118.237 198.781H107.222V192.219H119.55L122.737 175.906H110.784V169.25H124.05L127.894 149.75H134.972L131.128 169.25H143.081L146.925 149.75H154.003L150.159 169.25H159.534V175.906H148.894L145.706 192.219H156.019V198.781H144.394L140.644 218H133.566L137.316 198.781H125.316L121.566 218H114.487ZM126.628 192.219H138.628L141.816 175.906H129.816L126.628 192.219ZM155.475 221.418L172.1 178.188H176.639L160.041 221.418H155.475ZM201.461 218.667C196.827 218.667 192.955 217.651 189.845 215.62C186.755 213.588 184.428 210.806 182.862 207.272C181.318 203.739 180.545 199.729 180.545 195.244V194.577C180.545 190.049 181.36 186.029 182.989 182.517C184.618 178.983 186.956 176.201 190.003 174.169C193.05 172.138 196.69 171.123 200.921 171.123C203.905 171.123 206.634 171.588 209.11 172.519C211.585 173.45 213.638 174.635 215.267 176.074V186.04H210.284L209.618 178.74C207.481 177.111 204.571 176.296 200.89 176.296C197.864 176.296 195.304 177.079 193.209 178.645C191.114 180.189 189.527 182.326 188.448 185.056C187.369 187.785 186.829 190.938 186.829 194.514V195.244C186.829 201.062 188.11 205.58 190.67 208.796C193.23 211.991 196.901 213.588 201.683 213.588C203.164 213.588 204.614 213.409 206.031 213.049C207.449 212.689 208.623 212.224 209.554 211.652L210.252 205.209H215.14V215.239C213.405 216.318 211.331 217.164 208.919 217.778C206.507 218.37 204.021 218.667 201.461 218.667ZM233.993 213.366V198.798H221.266V193.149H233.993V179.724H240.245V193.149H252.94V198.798H240.245V213.366H233.993ZM270.365 213.366V198.798H257.638V193.149H270.365V179.724H276.617V193.149H289.312V198.798H276.617V213.366H270.365Z" fill="#DFDFDF"/>
<path d="M55.4238 248V245.785L58.2891 245.293V225.131L55.4238 224.639V222.406H64.6172V224.639L61.752 225.131V245.346H70.8047L71.209 241.303H73.8633V248H55.4238ZM85.5176 248.369C83.7598 248.369 82.2422 247.959 80.9648 247.139C79.6992 246.307 78.7207 245.164 78.0293 243.711C77.3379 242.246 76.9922 240.576 76.9922 238.701V238.314C76.9922 236.439 77.3379 234.775 78.0293 233.322C78.7207 231.857 79.6992 230.709 80.9648 229.877C82.2422 229.045 83.748 228.629 85.4824 228.629C87.2402 228.629 88.752 229.045 90.0176 229.877C91.2949 230.709 92.2793 231.852 92.9707 233.305C93.6621 234.758 94.0078 236.428 94.0078 238.314V238.701C94.0078 240.588 93.6621 242.264 92.9707 243.729C92.2793 245.182 91.3008 246.318 90.0352 247.139C88.7695 247.959 87.2637 248.369 85.5176 248.369ZM85.5176 245.662C87.1582 245.662 88.4062 245.006 89.2617 243.693C90.1172 242.381 90.5449 240.717 90.5449 238.701V238.314C90.5449 236.979 90.3516 235.789 89.9648 234.746C89.5898 233.691 89.0273 232.865 88.2773 232.268C87.5273 231.658 86.5957 231.354 85.4824 231.354C84.3809 231.354 83.4551 231.658 82.7051 232.268C81.9551 232.865 81.3926 233.691 81.0176 234.746C80.6426 235.789 80.4551 236.979 80.4551 238.314V238.701C80.4551 240.717 80.877 242.381 81.7207 243.693C82.5762 245.006 83.8418 245.662 85.5176 245.662ZM105.908 248.369C104.186 248.369 102.686 247.971 101.408 247.174C100.131 246.365 99.1406 245.246 98.4375 243.816C97.7344 242.387 97.3828 240.734 97.3828 238.859V238.121C97.3828 236.316 97.7227 234.699 98.4023 233.27C99.082 231.84 100.061 230.709 101.338 229.877C102.615 229.045 104.139 228.629 105.908 228.629C107.443 228.629 108.785 228.881 109.934 229.385C111.094 229.889 112.066 230.58 112.852 231.459L112.939 236.029H110.232L109.635 232.707C109.236 232.297 108.738 231.969 108.141 231.723C107.543 231.477 106.84 231.354 106.031 231.354C105 231.354 104.092 231.658 103.307 232.268C102.533 232.877 101.93 233.691 101.496 234.711C101.062 235.73 100.846 236.867 100.846 238.121V238.859C100.846 240.945 101.297 242.604 102.199 243.834C103.102 245.053 104.332 245.662 105.891 245.662C107.062 245.662 108.035 245.34 108.809 244.695C109.582 244.051 110.057 243.166 110.232 242.041H113.344L113.379 242.146C113.32 243.236 112.998 244.256 112.412 245.205C111.826 246.154 110.988 246.922 109.898 247.508C108.82 248.082 107.49 248.369 105.908 248.369ZM122.59 248.369C120.609 248.369 119.104 247.889 118.072 246.928C117.041 245.955 116.525 244.59 116.525 242.832C116.525 241.027 117.264 239.58 118.74 238.49C120.217 237.389 122.268 236.838 124.893 236.838H128.285V234.975C128.285 233.826 127.934 232.936 127.23 232.303C126.539 231.67 125.561 231.354 124.295 231.354C123.498 231.354 122.807 231.453 122.221 231.652C121.635 231.84 121.102 232.104 120.621 232.443L120.252 235.098H117.58V230.738C119.303 229.332 121.559 228.629 124.348 228.629C126.656 228.629 128.467 229.18 129.779 230.281C131.092 231.383 131.748 232.959 131.748 235.01V244.168C131.748 244.414 131.748 244.654 131.748 244.889C131.76 245.123 131.777 245.357 131.801 245.592L133.646 245.785V248H128.672C128.473 247.039 128.35 246.166 128.303 245.381C127.635 246.236 126.797 246.951 125.789 247.525C124.793 248.088 123.727 248.369 122.59 248.369ZM123.1 245.469C124.248 245.469 125.297 245.193 126.246 244.643C127.195 244.092 127.875 243.43 128.285 242.656V239.211H124.77C123.176 239.211 121.98 239.592 121.184 240.354C120.387 241.115 119.988 241.965 119.988 242.902C119.988 244.613 121.025 245.469 123.1 245.469ZM136.16 248V245.785L139.025 245.293V223.303L136.16 222.811V220.578H142.488V245.293L145.354 245.785V248H136.16ZM147.393 248V245.785L150.258 245.293V223.303L147.393 222.811V220.578H153.721V231.512C154.377 230.598 155.18 229.889 156.129 229.385C157.078 228.881 158.133 228.629 159.293 228.629C161.332 228.629 162.914 229.238 164.039 230.457C165.164 231.676 165.727 233.551 165.727 236.082V245.293L168.592 245.785V248H159.398V245.785L162.264 245.293V236.047C162.264 232.977 160.922 231.441 158.238 231.441C157.289 231.441 156.422 231.67 155.637 232.127C154.863 232.572 154.225 233.182 153.721 233.955V245.293L156.586 245.785V248H147.393ZM179.279 248.369C177.521 248.369 176.004 247.959 174.727 247.139C173.461 246.307 172.482 245.164 171.791 243.711C171.1 242.246 170.754 240.576 170.754 238.701V238.314C170.754 236.439 171.1 234.775 171.791 233.322C172.482 231.857 173.461 230.709 174.727 229.877C176.004 229.045 177.51 228.629 179.244 228.629C181.002 228.629 182.514 229.045 183.779 229.877C185.057 230.709 186.041 231.852 186.732 233.305C187.424 234.758 187.77 236.428 187.77 238.314V238.701C187.77 240.588 187.424 242.264 186.732 243.729C186.041 245.182 185.062 246.318 183.797 247.139C182.531 247.959 181.025 248.369 179.279 248.369ZM179.279 245.662C180.92 245.662 182.168 245.006 183.023 243.693C183.879 242.381 184.307 240.717 184.307 238.701V238.314C184.307 236.979 184.113 235.789 183.727 234.746C183.352 233.691 182.789 232.865 182.039 232.268C181.289 231.658 180.357 231.354 179.244 231.354C178.143 231.354 177.217 231.658 176.467 232.268C175.717 232.865 175.154 233.691 174.779 234.746C174.404 235.789 174.217 236.979 174.217 238.314V238.701C174.217 240.717 174.639 242.381 175.482 243.693C176.338 245.006 177.604 245.662 179.279 245.662ZM198.141 248.369C196.863 248.369 195.668 248.24 194.555 247.982C193.441 247.725 192.258 247.326 191.004 246.787L190.969 242.27H193.588L194.238 244.994C195.48 245.51 196.781 245.768 198.141 245.768C199.547 245.768 200.555 245.498 201.164 244.959C201.773 244.42 202.078 243.752 202.078 242.955C202.078 242.205 201.768 241.572 201.146 241.057C200.537 240.529 199.424 240.084 197.807 239.721C195.51 239.193 193.816 238.49 192.727 237.611C191.648 236.721 191.109 235.537 191.109 234.061C191.109 233.029 191.408 232.109 192.006 231.301C192.604 230.48 193.436 229.83 194.502 229.35C195.568 228.869 196.811 228.629 198.229 228.629C199.67 228.629 200.9 228.793 201.92 229.121C202.951 229.449 203.848 229.889 204.609 230.439L204.785 234.781H202.184L201.621 232.25C201.211 231.945 200.725 231.711 200.162 231.547C199.6 231.383 198.955 231.301 198.229 231.301C197.15 231.301 196.271 231.553 195.592 232.057C194.924 232.561 194.59 233.193 194.59 233.955C194.59 234.4 194.684 234.787 194.871 235.115C195.07 235.443 195.445 235.742 195.996 236.012C196.547 236.27 197.355 236.527 198.422 236.785C201.07 237.406 202.916 238.197 203.959 239.158C205.014 240.119 205.541 241.303 205.541 242.709C205.541 244.314 204.943 245.662 203.748 246.752C202.564 247.83 200.695 248.369 198.141 248.369ZM215.121 248.299C213.715 248.299 212.596 247.889 211.764 247.068C210.943 246.236 210.533 244.912 210.533 243.096V231.547H207.527V228.98H210.533V224.393H213.996V228.98H218.127V231.547H213.996V243.096C213.996 244.01 214.178 244.684 214.541 245.117C214.904 245.551 215.391 245.768 216 245.768C216.41 245.768 216.867 245.732 217.371 245.662C217.875 245.58 218.268 245.51 218.549 245.451L219.023 247.719C218.52 247.871 217.898 248.006 217.16 248.123C216.434 248.24 215.754 248.299 215.121 248.299ZM222.486 248V244.449H225.949V248H222.486ZM222.486 232.531V228.98H225.949V232.531H222.486ZM237.27 248.369C234.762 248.369 232.746 247.748 231.223 246.506C229.699 245.252 228.938 243.441 228.938 241.074C228.938 239.633 229.371 238.361 230.238 237.26C231.105 236.158 232.277 235.35 233.754 234.834C232.477 234.342 231.475 233.598 230.748 232.602C230.021 231.594 229.658 230.422 229.658 229.086C229.658 226.836 230.35 225.102 231.732 223.883C233.127 222.652 234.961 222.037 237.234 222.037C239.484 222.037 241.318 222.652 242.736 223.883C244.166 225.102 244.881 226.836 244.881 229.086C244.881 230.422 244.506 231.594 243.756 232.602C243.006 233.598 241.992 234.342 240.715 234.834C242.191 235.35 243.369 236.158 244.248 237.26C245.139 238.361 245.584 239.633 245.584 241.074C245.584 243.441 244.811 245.252 243.264 246.506C241.729 247.748 239.73 248.369 237.27 248.369ZM237.27 233.463C238.488 233.463 239.484 233.07 240.258 232.285C241.031 231.5 241.418 230.457 241.418 229.156C241.418 227.891 241.02 226.842 240.223 226.01C239.438 225.178 238.441 224.762 237.234 224.762C236.004 224.762 235.008 225.166 234.246 225.975C233.496 226.771 233.121 227.832 233.121 229.156C233.121 230.457 233.502 231.5 234.264 232.285C235.025 233.07 236.027 233.463 237.27 233.463ZM237.27 245.662C238.711 245.662 239.883 245.246 240.785 244.414C241.688 243.582 242.139 242.445 242.139 241.004C242.139 239.598 241.676 238.443 240.75 237.541C239.824 236.639 238.652 236.188 237.234 236.188C235.805 236.188 234.639 236.639 233.736 237.541C232.846 238.432 232.4 239.586 232.4 241.004C232.4 242.457 232.84 243.6 233.719 244.432C234.609 245.252 235.793 245.662 237.27 245.662ZM257.502 248.369C254.994 248.369 253.008 247.496 251.543 245.75C250.078 244.004 249.346 241.502 249.346 238.244V232.18C249.346 228.922 250.072 226.42 251.525 224.674C252.979 222.916 254.959 222.037 257.467 222.037C259.986 222.037 261.979 222.916 263.443 224.674C264.908 226.42 265.641 228.922 265.641 232.18V238.244C265.641 241.514 264.914 244.021 263.461 245.768C262.008 247.502 260.021 248.369 257.502 248.369ZM257.502 245.662C260.619 245.662 262.178 243.424 262.178 238.947V231.441C262.178 226.988 260.607 224.762 257.467 224.762C255.955 224.762 254.801 225.324 254.004 226.449C253.207 227.562 252.809 229.227 252.809 231.441V238.947C252.809 241.162 253.213 242.838 254.021 243.975C254.83 245.1 255.99 245.662 257.502 245.662ZM278.033 248.369C275.525 248.369 273.539 247.496 272.074 245.75C270.609 244.004 269.877 241.502 269.877 238.244V232.18C269.877 228.922 270.604 226.42 272.057 224.674C273.51 222.916 275.49 222.037 277.998 222.037C280.518 222.037 282.51 222.916 283.975 224.674C285.439 226.42 286.172 228.922 286.172 232.18V238.244C286.172 241.514 285.445 244.021 283.992 245.768C282.539 247.502 280.553 248.369 278.033 248.369ZM278.033 245.662C281.15 245.662 282.709 243.424 282.709 238.947V231.441C282.709 226.988 281.139 224.762 277.998 224.762C276.486 224.762 275.332 225.324 274.535 226.449C273.738 227.562 273.34 229.227 273.34 231.441V238.947C273.34 241.162 273.744 242.838 274.553 243.975C275.361 245.1 276.521 245.662 278.033 245.662ZM298.564 248.369C296.057 248.369 294.07 247.496 292.605 245.75C291.141 244.004 290.408 241.502 290.408 238.244V232.18C290.408 228.922 291.135 226.42 292.588 224.674C294.041 222.916 296.021 222.037 298.529 222.037C301.049 222.037 303.041 222.916 304.506 224.674C305.971 226.42 306.703 228.922 306.703 232.18V238.244C306.703 241.514 305.977 244.021 304.523 245.768C303.07 247.502 301.084 248.369 298.564 248.369ZM298.564 245.662C301.682 245.662 303.24 243.424 303.24 238.947V231.441C303.24 226.988 301.67 224.762 298.529 224.762C297.018 224.762 295.863 225.324 295.066 226.449C294.27 227.562 293.871 229.227 293.871 231.441V238.947C293.871 241.162 294.275 242.838 295.084 243.975C295.893 245.1 297.053 245.662 298.564 245.662Z" fill="#DFDFDF"/>
<path d="M55.4238 276V273.785L58.2891 273.293V253.131L55.4238 252.639V250.406H64.6172V252.639L61.752 253.131V273.346H70.8047L71.209 269.303H73.8633V276H55.4238ZM85.5176 276.369C83.7598 276.369 82.2422 275.959 80.9648 275.139C79.6992 274.307 78.7207 273.164 78.0293 271.711C77.3379 270.246 76.9922 268.576 76.9922 266.701V266.314C76.9922 264.439 77.3379 262.775 78.0293 261.322C78.7207 259.857 79.6992 258.709 80.9648 257.877C82.2422 257.045 83.748 256.629 85.4824 256.629C87.2402 256.629 88.752 257.045 90.0176 257.877C91.2949 258.709 92.2793 259.852 92.9707 261.305C93.6621 262.758 94.0078 264.428 94.0078 266.314V266.701C94.0078 268.588 93.6621 270.264 92.9707 271.729C92.2793 273.182 91.3008 274.318 90.0352 275.139C88.7695 275.959 87.2637 276.369 85.5176 276.369ZM85.5176 273.662C87.1582 273.662 88.4062 273.006 89.2617 271.693C90.1172 270.381 90.5449 268.717 90.5449 266.701V266.314C90.5449 264.979 90.3516 263.789 89.9648 262.746C89.5898 261.691 89.0273 260.865 88.2773 260.268C87.5273 259.658 86.5957 259.354 85.4824 259.354C84.3809 259.354 83.4551 259.658 82.7051 260.268C81.9551 260.865 81.3926 261.691 81.0176 262.746C80.6426 263.789 80.4551 264.979 80.4551 266.314V266.701C80.4551 268.717 80.877 270.381 81.7207 271.693C82.5762 273.006 83.8418 273.662 85.5176 273.662ZM105.908 276.369C104.186 276.369 102.686 275.971 101.408 275.174C100.131 274.365 99.1406 273.246 98.4375 271.816C97.7344 270.387 97.3828 268.734 97.3828 266.859V266.121C97.3828 264.316 97.7227 262.699 98.4023 261.27C99.082 259.84 100.061 258.709 101.338 257.877C102.615 257.045 104.139 256.629 105.908 256.629C107.443 256.629 108.785 256.881 109.934 257.385C111.094 257.889 112.066 258.58 112.852 259.459L112.939 264.029H110.232L109.635 260.707C109.236 260.297 108.738 259.969 108.141 259.723C107.543 259.477 106.84 259.354 106.031 259.354C105 259.354 104.092 259.658 103.307 260.268C102.533 260.877 101.93 261.691 101.496 262.711C101.062 263.73 100.846 264.867 100.846 266.121V266.859C100.846 268.945 101.297 270.604 102.199 271.834C103.102 273.053 104.332 273.662 105.891 273.662C107.062 273.662 108.035 273.34 108.809 272.695C109.582 272.051 110.057 271.166 110.232 270.041H113.344L113.379 270.146C113.32 271.236 112.998 272.256 112.412 273.205C111.826 274.154 110.988 274.922 109.898 275.508C108.82 276.082 107.49 276.369 105.908 276.369ZM122.59 276.369C120.609 276.369 119.104 275.889 118.072 274.928C117.041 273.955 116.525 272.59 116.525 270.832C116.525 269.027 117.264 267.58 118.74 266.49C120.217 265.389 122.268 264.838 124.893 264.838H128.285V262.975C128.285 261.826 127.934 260.936 127.23 260.303C126.539 259.67 125.561 259.354 124.295 259.354C123.498 259.354 122.807 259.453 122.221 259.652C121.635 259.84 121.102 260.104 120.621 260.443L120.252 263.098H117.58V258.738C119.303 257.332 121.559 256.629 124.348 256.629C126.656 256.629 128.467 257.18 129.779 258.281C131.092 259.383 131.748 260.959 131.748 263.01V272.168C131.748 272.414 131.748 272.654 131.748 272.889C131.76 273.123 131.777 273.357 131.801 273.592L133.646 273.785V276H128.672C128.473 275.039 128.35 274.166 128.303 273.381C127.635 274.236 126.797 274.951 125.789 275.525C124.793 276.088 123.727 276.369 122.59 276.369ZM123.1 273.469C124.248 273.469 125.297 273.193 126.246 272.643C127.195 272.092 127.875 271.43 128.285 270.656V267.211H124.77C123.176 267.211 121.98 267.592 121.184 268.354C120.387 269.115 119.988 269.965 119.988 270.902C119.988 272.613 121.025 273.469 123.1 273.469ZM136.16 276V273.785L139.025 273.293V251.303L136.16 250.811V248.578H142.488V273.293L145.354 273.785V276H136.16ZM147.393 276V273.785L150.258 273.293V251.303L147.393 250.811V248.578H153.721V259.512C154.377 258.598 155.18 257.889 156.129 257.385C157.078 256.881 158.133 256.629 159.293 256.629C161.332 256.629 162.914 257.238 164.039 258.457C165.164 259.676 165.727 261.551 165.727 264.082V273.293L168.592 273.785V276H159.398V273.785L162.264 273.293V264.047C162.264 260.977 160.922 259.441 158.238 259.441C157.289 259.441 156.422 259.67 155.637 260.127C154.863 260.572 154.225 261.182 153.721 261.955V273.293L156.586 273.785V276H147.393ZM179.279 276.369C177.521 276.369 176.004 275.959 174.727 275.139C173.461 274.307 172.482 273.164 171.791 271.711C171.1 270.246 170.754 268.576 170.754 266.701V266.314C170.754 264.439 171.1 262.775 171.791 261.322C172.482 259.857 173.461 258.709 174.727 257.877C176.004 257.045 177.51 256.629 179.244 256.629C181.002 256.629 182.514 257.045 183.779 257.877C185.057 258.709 186.041 259.852 186.732 261.305C187.424 262.758 187.77 264.428 187.77 266.314V266.701C187.77 268.588 187.424 270.264 186.732 271.729C186.041 273.182 185.062 274.318 183.797 275.139C182.531 275.959 181.025 276.369 179.279 276.369ZM179.279 273.662C180.92 273.662 182.168 273.006 183.023 271.693C183.879 270.381 184.307 268.717 184.307 266.701V266.314C184.307 264.979 184.113 263.789 183.727 262.746C183.352 261.691 182.789 260.865 182.039 260.268C181.289 259.658 180.357 259.354 179.244 259.354C178.143 259.354 177.217 259.658 176.467 260.268C175.717 260.865 175.154 261.691 174.779 262.746C174.404 263.789 174.217 264.979 174.217 266.314V266.701C174.217 268.717 174.639 270.381 175.482 271.693C176.338 273.006 177.604 273.662 179.279 273.662ZM198.141 276.369C196.863 276.369 195.668 276.24 194.555 275.982C193.441 275.725 192.258 275.326 191.004 274.787L190.969 270.27H193.588L194.238 272.994C195.48 273.51 196.781 273.768 198.141 273.768C199.547 273.768 200.555 273.498 201.164 272.959C201.773 272.42 202.078 271.752 202.078 270.955C202.078 270.205 201.768 269.572 201.146 269.057C200.537 268.529 199.424 268.084 197.807 267.721C195.51 267.193 193.816 266.49 192.727 265.611C191.648 264.721 191.109 263.537 191.109 262.061C191.109 261.029 191.408 260.109 192.006 259.301C192.604 258.48 193.436 257.83 194.502 257.35C195.568 256.869 196.811 256.629 198.229 256.629C199.67 256.629 200.9 256.793 201.92 257.121C202.951 257.449 203.848 257.889 204.609 258.439L204.785 262.781H202.184L201.621 260.25C201.211 259.945 200.725 259.711 200.162 259.547C199.6 259.383 198.955 259.301 198.229 259.301C197.15 259.301 196.271 259.553 195.592 260.057C194.924 260.561 194.59 261.193 194.59 261.955C194.59 262.4 194.684 262.787 194.871 263.115C195.07 263.443 195.445 263.742 195.996 264.012C196.547 264.27 197.355 264.527 198.422 264.785C201.07 265.406 202.916 266.197 203.959 267.158C205.014 268.119 205.541 269.303 205.541 270.709C205.541 272.314 204.943 273.662 203.748 274.752C202.564 275.83 200.695 276.369 198.141 276.369ZM215.121 276.299C213.715 276.299 212.596 275.889 211.764 275.068C210.943 274.236 210.533 272.912 210.533 271.096V259.547H207.527V256.98H210.533V252.393H213.996V256.98H218.127V259.547H213.996V271.096C213.996 272.01 214.178 272.684 214.541 273.117C214.904 273.551 215.391 273.768 216 273.768C216.41 273.768 216.867 273.732 217.371 273.662C217.875 273.58 218.268 273.51 218.549 273.451L219.023 275.719C218.52 275.871 217.898 276.006 217.16 276.123C216.434 276.24 215.754 276.299 215.121 276.299ZM222.486 276V272.449H225.949V276H222.486ZM222.486 260.531V256.98H225.949V260.531H222.486ZM237.27 276.369C234.762 276.369 232.746 275.748 231.223 274.506C229.699 273.252 228.938 271.441 228.938 269.074C228.938 267.633 229.371 266.361 230.238 265.26C231.105 264.158 232.277 263.35 233.754 262.834C232.477 262.342 231.475 261.598 230.748 260.602C230.021 259.594 229.658 258.422 229.658 257.086C229.658 254.836 230.35 253.102 231.732 251.883C233.127 250.652 234.961 250.037 237.234 250.037C239.484 250.037 241.318 250.652 242.736 251.883C244.166 253.102 244.881 254.836 244.881 257.086C244.881 258.422 244.506 259.594 243.756 260.602C243.006 261.598 241.992 262.342 240.715 262.834C242.191 263.35 243.369 264.158 244.248 265.26C245.139 266.361 245.584 267.633 245.584 269.074C245.584 271.441 244.811 273.252 243.264 274.506C241.729 275.748 239.73 276.369 237.27 276.369ZM237.27 261.463C238.488 261.463 239.484 261.07 240.258 260.285C241.031 259.5 241.418 258.457 241.418 257.156C241.418 255.891 241.02 254.842 240.223 254.01C239.438 253.178 238.441 252.762 237.234 252.762C236.004 252.762 235.008 253.166 234.246 253.975C233.496 254.771 233.121 255.832 233.121 257.156C233.121 258.457 233.502 259.5 234.264 260.285C235.025 261.07 236.027 261.463 237.27 261.463ZM237.27 273.662C238.711 273.662 239.883 273.246 240.785 272.414C241.688 271.582 242.139 270.445 242.139 269.004C242.139 267.598 241.676 266.443 240.75 265.541C239.824 264.639 238.652 264.188 237.234 264.188C235.805 264.188 234.639 264.639 233.736 265.541C232.846 266.432 232.4 267.586 232.4 269.004C232.4 270.457 232.84 271.6 233.719 272.432C234.609 273.252 235.793 273.662 237.27 273.662ZM257.502 276.369C254.994 276.369 253.008 275.496 251.543 273.75C250.078 272.004 249.346 269.502 249.346 266.244V260.18C249.346 256.922 250.072 254.42 251.525 252.674C252.979 250.916 254.959 250.037 257.467 250.037C259.986 250.037 261.979 250.916 263.443 252.674C264.908 254.42 265.641 256.922 265.641 260.18V266.244C265.641 269.514 264.914 272.021 263.461 273.768C262.008 275.502 260.021 276.369 257.502 276.369ZM257.502 273.662C260.619 273.662 262.178 271.424 262.178 266.947V259.441C262.178 254.988 260.607 252.762 257.467 252.762C255.955 252.762 254.801 253.324 254.004 254.449C253.207 255.562 252.809 257.227 252.809 259.441V266.947C252.809 269.162 253.213 270.838 254.021 271.975C254.83 273.1 255.99 273.662 257.502 273.662ZM278.033 276.369C275.525 276.369 273.539 275.496 272.074 273.75C270.609 272.004 269.877 269.502 269.877 266.244V260.18C269.877 256.922 270.604 254.42 272.057 252.674C273.51 250.916 275.49 250.037 277.998 250.037C280.518 250.037 282.51 250.916 283.975 252.674C285.439 254.42 286.172 256.922 286.172 260.18V266.244C286.172 269.514 285.445 272.021 283.992 273.768C282.539 275.502 280.553 276.369 278.033 276.369ZM278.033 273.662C281.15 273.662 282.709 271.424 282.709 266.947V259.441C282.709 254.988 281.139 252.762 277.998 252.762C276.486 252.762 275.332 253.324 274.535 254.449C273.738 255.562 273.34 257.227 273.34 259.441V266.947C273.34 269.162 273.744 270.838 274.553 271.975C275.361 273.1 276.521 273.662 278.033 273.662ZM298.564 276.369C296.057 276.369 294.07 275.496 292.605 273.75C291.141 272.004 290.408 269.502 290.408 266.244V260.18C290.408 256.922 291.135 254.42 292.588 252.674C294.041 250.916 296.021 250.037 298.529 250.037C301.049 250.037 303.041 250.916 304.506 252.674C305.971 254.42 306.703 256.922 306.703 260.18V266.244C306.703 269.514 305.977 272.021 304.523 273.768C303.07 275.502 301.084 276.369 298.564 276.369ZM298.564 273.662C301.682 273.662 303.24 271.424 303.24 266.947V259.441C303.24 254.988 301.67 252.762 298.529 252.762C297.018 252.762 295.863 253.324 295.066 254.449C294.27 255.562 293.871 257.227 293.871 259.441V266.947C293.871 269.162 294.275 270.838 295.084 271.975C295.893 273.1 297.053 273.662 298.564 273.662Z" fill="#DFDFDF"/>
<path d="M233.684 174.738C230.848 174.738 228.27 174.176 225.949 173.051C223.652 171.926 221.801 170.227 220.395 167.953C219.012 165.68 218.25 162.832 218.109 159.41L218.18 159.199H224.824C224.918 162.645 225.703 165.176 227.18 166.793C228.68 168.41 230.812 169.219 233.578 169.219C236.484 169.219 238.617 168.316 239.977 166.512C241.336 164.684 242.016 162.34 242.016 159.48V128.262L235.195 127.348V122.812H254.672V127.277L248.941 128.262V159.48C248.941 164.074 247.641 167.766 245.039 170.555C242.461 173.344 238.676 174.738 233.684 174.738ZM268.079 174.738C264.118 174.738 261.106 173.777 259.044 171.855C256.981 169.91 255.95 167.18 255.95 163.664C255.95 160.055 257.427 157.16 260.38 154.98C263.333 152.777 267.435 151.676 272.685 151.676H279.47V147.949C279.47 145.652 278.767 143.871 277.36 142.605C275.978 141.34 274.02 140.707 271.489 140.707C269.895 140.707 268.513 140.906 267.341 141.305C266.169 141.68 265.103 142.207 264.142 142.887L263.403 148.195H258.06V139.477C261.505 136.664 266.017 135.258 271.595 135.258C276.212 135.258 279.833 136.359 282.458 138.562C285.083 140.766 286.395 143.918 286.395 148.02V166.336C286.395 166.828 286.395 167.309 286.395 167.777C286.419 168.246 286.454 168.715 286.501 169.184L290.192 169.57V174H280.243C279.845 172.078 279.599 170.332 279.505 168.762C278.169 170.473 276.493 171.902 274.478 173.051C272.485 174.176 270.353 174.738 268.079 174.738ZM269.099 168.938C271.395 168.938 273.493 168.387 275.392 167.285C277.29 166.184 278.649 164.859 279.47 163.312V156.422H272.438C269.251 156.422 266.86 157.184 265.267 158.707C263.673 160.23 262.876 161.93 262.876 163.805C262.876 167.227 264.95 168.938 269.099 168.938ZM306.834 174L293.299 140.953L289.361 140.426V135.961H305.322V140.426L300.365 141.129L308.803 162.785L309.787 165.844H309.998L311.123 162.785L318.963 141.129L313.865 140.426V135.961H329.791V140.426L325.783 140.953L312.916 174H306.834ZM341.229 174.738C337.268 174.738 334.257 173.777 332.194 171.855C330.132 169.91 329.1 167.18 329.1 163.664C329.1 160.055 330.577 157.16 333.53 154.98C336.483 152.777 340.585 151.676 345.835 151.676H352.62V147.949C352.62 145.652 351.917 143.871 350.511 142.605C349.128 141.34 347.171 140.707 344.64 140.707C343.046 140.707 341.663 140.906 340.491 141.305C339.319 141.68 338.253 142.207 337.292 142.887L336.554 148.195H331.21V139.477C334.655 136.664 339.167 135.258 344.745 135.258C349.362 135.258 352.983 136.359 355.608 138.562C358.233 140.766 359.546 143.918 359.546 148.02V166.336C359.546 166.828 359.546 167.309 359.546 167.777C359.569 168.246 359.604 168.715 359.651 169.184L363.343 169.57V174H353.393C352.995 172.078 352.749 170.332 352.655 168.762C351.319 170.473 349.643 171.902 347.628 173.051C345.636 174.176 343.503 174.738 341.229 174.738ZM342.249 168.938C344.546 168.938 346.643 168.387 348.542 167.285C350.44 166.184 351.8 164.859 352.62 163.312V156.422H345.589C342.401 156.422 340.011 157.184 338.417 158.707C336.823 160.23 336.026 161.93 336.026 163.805C336.026 167.227 338.1 168.938 342.249 168.938Z" fill="#DFDFDF"/>
<path d="M307.102 199.246C306.062 199.246 305.062 199.094 304.102 198.789C303.141 198.484 302.223 198.016 301.348 197.383V193.738H303.141L303.527 196.422C304.035 196.734 304.586 196.977 305.18 197.148C305.773 197.32 306.414 197.406 307.102 197.406C308.266 197.406 309.168 197.148 309.809 196.633C310.449 196.109 310.77 195.426 310.77 194.582C310.77 193.801 310.48 193.152 309.902 192.637C309.324 192.121 308.293 191.695 306.809 191.359C305.043 190.953 303.695 190.336 302.766 189.508C301.836 188.672 301.371 187.621 301.371 186.355C301.371 185.465 301.605 184.668 302.074 183.965C302.551 183.262 303.211 182.707 304.055 182.301C304.898 181.895 305.883 181.691 307.008 181.691C308.203 181.691 309.258 181.875 310.172 182.242C311.094 182.602 311.852 183.039 312.445 183.555V186.965H310.652L310.266 184.527C309.914 184.246 309.477 184.012 308.953 183.824C308.43 183.637 307.781 183.543 307.008 183.543C306.016 183.543 305.211 183.797 304.594 184.305C303.984 184.812 303.68 185.484 303.68 186.32C303.68 187.055 303.973 187.656 304.559 188.125C305.145 188.586 306.16 188.996 307.605 189.355C309.402 189.801 310.762 190.461 311.684 191.336C312.613 192.203 313.078 193.277 313.078 194.559C313.078 195.473 312.832 196.285 312.34 196.996C311.848 197.699 311.152 198.25 310.254 198.648C309.363 199.047 308.312 199.246 307.102 199.246ZM319.5 199L316.16 187.973L314.742 187.809V186.32H319.98V187.809L318.422 188.066L320.168 194.383L320.566 195.883H320.637L321.152 194.383L323.906 186.32H325.852L328.477 194.359L329.039 196.141H329.109L329.66 194.359L331.43 188.055L329.836 187.809V186.32H334.957V187.809L333.551 188.008L330.27 199H328.078L325.512 191.383L324.902 189.344L324.832 189.355L324.234 191.383L321.48 199H319.5ZM336.293 199V197.523L338.203 197.195V188.137L336.293 187.809V186.32H340.512V197.195L342.422 197.523V199H336.293ZM338.086 183.191V180.719H340.512V183.191H338.086ZM343.969 199V197.523L345.879 197.195V188.031H343.898V186.32H345.879V184.715C345.879 183.363 346.23 182.32 346.934 181.586C347.645 180.844 348.633 180.473 349.898 180.473C350.164 180.473 350.449 180.496 350.754 180.543C351.066 180.582 351.387 180.641 351.715 180.719L351.434 182.477C351.293 182.445 351.102 182.418 350.859 182.395C350.625 182.371 350.402 182.359 350.191 182.359C348.855 182.359 348.188 183.145 348.188 184.715V186.32H350.953V188.031H348.188V197.195L350.367 197.523V199H343.969ZM357 199.199C356.062 199.199 355.316 198.926 354.762 198.379C354.215 197.824 353.941 196.941 353.941 195.73V188.031H351.938V186.32H353.941V183.262H356.25V186.32H359.004V188.031H356.25V195.73C356.25 196.34 356.371 196.789 356.613 197.078C356.855 197.367 357.18 197.512 357.586 197.512C357.859 197.512 358.164 197.488 358.5 197.441C358.836 197.387 359.098 197.34 359.285 197.301L359.602 198.812C359.266 198.914 358.852 199.004 358.359 199.082C357.875 199.16 357.422 199.199 357 199.199Z" fill="#DFDFDF"/>
<path d="M282.949 218V216.523L284.859 216.195V202.754L282.949 202.426V200.938H290.789C292.609 200.938 294.023 201.406 295.031 202.344C296.047 203.281 296.555 204.516 296.555 206.047C296.555 207.594 296.047 208.832 295.031 209.762C294.023 210.691 292.609 211.156 290.789 211.156H287.168V216.195L289.078 216.523V218H282.949ZM287.168 209.352H290.789C291.945 209.352 292.809 209.043 293.379 208.426C293.957 207.801 294.246 207.016 294.246 206.07C294.246 205.125 293.957 204.336 293.379 203.703C292.809 203.07 291.945 202.754 290.789 202.754H287.168V209.352ZM297.785 218V216.523L299.695 216.195V201.535L297.785 201.207V199.719H302.004V207.008C302.441 206.398 302.977 205.926 303.609 205.59C304.242 205.254 304.945 205.086 305.719 205.086C307.078 205.086 308.133 205.492 308.883 206.305C309.633 207.117 310.008 208.367 310.008 210.055V216.195L311.918 216.523V218H305.789V216.523L307.699 216.195V210.031C307.699 207.984 306.805 206.961 305.016 206.961C304.383 206.961 303.805 207.113 303.281 207.418C302.766 207.715 302.34 208.121 302.004 208.637V216.195L303.914 216.523V218H297.785ZM315.199 223.121C315.02 223.121 314.785 223.098 314.496 223.051C314.207 223.012 313.984 222.973 313.828 222.934L314.062 221.117C314.195 221.133 314.379 221.145 314.613 221.152C314.848 221.168 315.008 221.176 315.094 221.176C315.586 221.176 315.984 220.988 316.289 220.613C316.602 220.238 316.891 219.727 317.156 219.078L317.707 217.742L313.219 206.996L311.859 206.809V205.32H317.18V206.809L315.645 207.043L318.117 213.383L318.715 215.035H318.785L321.715 207.043L320.098 206.809V205.32H325.312V206.809L324 206.996L319.008 219.945C318.656 220.867 318.188 221.625 317.602 222.219C317.016 222.82 316.215 223.121 315.199 223.121ZM331.477 218.199C330.539 218.199 329.793 217.926 329.238 217.379C328.691 216.824 328.418 215.941 328.418 214.73V207.031H326.414V205.32H328.418V202.262H330.727V205.32H333.48V207.031H330.727V214.73C330.727 215.34 330.848 215.789 331.09 216.078C331.332 216.367 331.656 216.512 332.062 216.512C332.336 216.512 332.641 216.488 332.977 216.441C333.312 216.387 333.574 216.34 333.762 216.301L334.078 217.812C333.742 217.914 333.328 218.004 332.836 218.082C332.352 218.16 331.898 218.199 331.477 218.199ZM341.051 218.246C339.879 218.246 338.867 217.973 338.016 217.426C337.172 216.871 336.52 216.109 336.059 215.141C335.598 214.164 335.367 213.051 335.367 211.801V211.543C335.367 210.293 335.598 209.184 336.059 208.215C336.52 207.238 337.172 206.473 338.016 205.918C338.867 205.363 339.871 205.086 341.027 205.086C342.199 205.086 343.207 205.363 344.051 205.918C344.902 206.473 345.559 207.234 346.02 208.203C346.48 209.172 346.711 210.285 346.711 211.543V211.801C346.711 213.059 346.48 214.176 346.02 215.152C345.559 216.121 344.906 216.879 344.062 217.426C343.219 217.973 342.215 218.246 341.051 218.246ZM341.051 216.441C342.145 216.441 342.977 216.004 343.547 215.129C344.117 214.254 344.402 213.145 344.402 211.801V211.543C344.402 210.652 344.273 209.859 344.016 209.164C343.766 208.461 343.391 207.91 342.891 207.512C342.391 207.105 341.77 206.902 341.027 206.902C340.293 206.902 339.676 207.105 339.176 207.512C338.676 207.91 338.301 208.461 338.051 209.164C337.801 209.859 337.676 210.652 337.676 211.543V211.801C337.676 213.145 337.957 214.254 338.52 215.129C339.09 216.004 339.934 216.441 341.051 216.441ZM348.492 218V216.523L350.402 216.195V207.137L348.492 206.809V205.32H352.465L352.629 207.207C353.051 206.535 353.578 206.016 354.211 205.648C354.852 205.273 355.578 205.086 356.391 205.086C357.758 205.086 358.816 205.488 359.566 206.293C360.316 207.09 360.691 208.324 360.691 209.996V216.195L362.602 216.523V218H356.473V216.523L358.383 216.195V210.043C358.383 208.926 358.16 208.133 357.715 207.664C357.277 207.195 356.605 206.961 355.699 206.961C355.035 206.961 354.445 207.121 353.93 207.441C353.422 207.762 353.016 208.199 352.711 208.754V216.195L354.621 216.523V218H348.492Z" fill="#DFDFDF"/>
</svg>
